<?xml version="1.0" encoding="UTF-8"?>
<svg width="128" height="32" viewBox="0 0 128 32" fill="none" xmlns="http://www.w3.org/2000/svg">
  <path d="M16 4C9.373 4 4 9.373 4 16C4 22.627 9.373 28 16 28C22.627 28 28 22.627 28 16C28 9.373 22.627 4 16 4ZM16 25.333C10.844 25.333 6.667 21.156 6.667 16C6.667 10.844 10.844 6.667 16 6.667C21.156 6.667 25.333 10.844 25.333 16C25.333 21.156 21.156 25.333 16 25.333Z" fill="#0EA5E9"/>
  <path d="M16 10.667C13.054 10.667 10.667 13.054 10.667 16C10.667 18.946 13.054 21.333 16 21.333C18.946 21.333 21.333 18.946 21.333 16C21.333 13.054 18.946 10.667 16 10.667Z" fill="#0EA5E9"/>
  <path d="M44 22V10H47.1L51.6 18.3L56.1 10H59.2V22H56.5V14.4L52.6 21.4H50.6L46.7 14.4V22H44Z" fill="#1E293B"/>
  <path d="M62.8 22V10H71.8V12.3H65.5V14.8H71.2V17.1H65.5V19.7H71.8V22H62.8Z" fill="#1E293B"/>
  <path d="M74.8 22V10H77.5V19.7H83.6V22H74.8Z" fill="#1E293B"/>
  <path d="M86.6 22V10H89.3V19.7H95.4V22H86.6Z" fill="#1E293B"/>
  <path d="M98.4 22V10H105.1C106.3 10 107.3 10.2 108.1 10.7C108.9 11.2 109.5 11.8 109.9 12.6C110.3 13.4 110.5 14.3 110.5 15.3C110.5 16.3 110.3 17.2 109.9 18C109.5 18.8 108.9 19.4 108.1 19.9C107.3 20.4 106.3 20.6 105.1 20.6H101.1V22H98.4ZM101.1 18.3H104.9C105.7 18.3 106.4 18 106.8 17.4C107.2 16.8 107.4 16.1 107.4 15.3C107.4 14.5 107.2 13.8 106.8 13.2C106.4 12.6 105.7 12.3 104.9 12.3H101.1V18.3Z" fill="#1E293B"/>
  <path d="M113.5 22V10H122.5V12.3H116.2V14.8H121.9V17.1H116.2V19.7H122.5V22H113.5Z" fill="#1E293B"/>
</svg>
